<?xml version="1.0" encoding="UTF-8" standalone="no"?>
<!-- Created with Inkscape (http://www.inkscape.org/) -->

<svg
   width="482"
   height="78"
   viewBox="0 0 127.52916 20.637501"
   version="1.1"
   id="svg178"
   inkscape:version="1.1.2 (b8e25be833, 2022-02-05)"
   sodipodi:docname="bank-logo.svg"
   xmlns:inkscape="http://www.inkscape.org/namespaces/inkscape"
   xmlns:sodipodi="http://sodipodi.sourceforge.net/DTD/sodipodi-0.dtd"
   xmlns="http://www.w3.org/2000/svg"
   xmlns:svg="http://www.w3.org/2000/svg">
  <sodipodi:namedview
     id="namedview180"
     pagecolor="#ffffff"
     bordercolor="#666666"
     borderopacity="1.0"
     inkscape:pageshadow="2"
     inkscape:pageopacity="0.0"
     inkscape:pagecheckerboard="false"
     inkscape:document-units="mm"
     showgrid="false"
     units="px"
     inkscape:zoom="1.5287037"
     inkscape:cx="256.09933"
     inkscape:cy="95.17868"
     inkscape:window-width="1920"
     inkscape:window-height="1051"
     inkscape:window-x="-9"
     inkscape:window-y="-9"
     inkscape:window-maximized="1"
     inkscape:current-layer="layer1" />
  <defs
     id="defs175" />
  <g
     inkscape:label="Ebene 1"
     inkscape:groupmode="layer"
     id="layer1">
    <g
       id="g17"
       transform="matrix(0.03527778,0,0,-0.03527778,0.19565493,20.384562)">
      <path
         d="M 737.813,247.75 H 680.211 V 26.1367 h 126.676 v 48.7891 h -69.074 v 172.8242 0"
         style="fill:#231f20;fill-opacity:1;fill-rule:nonzero;stroke:none"
         id="path19" />
      <path
         d="m 983.363,176.918 h -53.492 v -14.695 c -11.164,13.222 -29.387,19.687 -46.73,19.687 -44.668,0 -75.532,-37.031 -75.532,-80.234 0,-43.2033 31.45,-80.5276 76.121,-80.5276 17.633,0 36.153,6.7579 45.551,21.7461 h 0.59 V 26.1367 h 53.492 z M 897.25,135.473 c 21.742,0 34.387,-15.575 34.387,-34.09 0,-19.1135 -12.645,-33.801 -34.387,-33.801 -21.754,0 -34.387,14.6875 -34.387,33.801 0,18.515 12.633,34.09 34.387,34.09 v 0"
         style="fill:#231f20;fill-opacity:1;fill-rule:evenodd;stroke:none"
         id="path21" />
      <path
         d="m 1057.69,176.918 h -53.5 V 26.1367 h 53.5 V 104.32 c 0,18.809 6.17,34.973 27.92,34.973 26.45,0 24.1,-25.273 24.1,-39.6797 V 26.1367 h 53.49 v 93.1763 c 0,37.031 -16.16,62.597 -56.72,62.597 -20.87,0 -35.86,-6.172 -48.2,-24.387 h -0.59 v 19.395 0"
         style="fill:#231f20;fill-opacity:1;fill-rule:nonzero;stroke:none"
         id="path23" />
      <path
         d="m 1264.56,135.473 c 21.75,0 34.39,-15.575 34.39,-34.09 0,-19.1135 -12.64,-33.801 -34.39,-33.801 -21.75,0 -34.39,14.6875 -34.39,33.801 0,18.515 12.64,34.09 34.39,34.09 z m 32.62,-109.3363 h 53.49 V 270.082 h -53.49 V 162.223 c -11.16,13.222 -29.39,19.687 -46.73,19.687 -44.67,0 -75.53,-37.031 -75.53,-80.234 0,-43.2033 31.44,-80.5276 76.12,-80.5276 17.63,0 36.15,6.7579 45.56,21.7461 h 0.58 v -16.7578 0"
         style="fill:#231f20;fill-opacity:1;fill-rule:evenodd;stroke:none"
         id="path25" />
      <path
         d="m 1524.34,98.1484 c 0,51.4376 -30.28,83.7616 -82.59,83.7616 -49.08,0 -83.47,-30.273 -83.47,-80.527 0,-52.0236 37.33,-80.2346 87.29,-80.2346 34.39,0 68.19,16.1602 76.71,51.7188 h -51.43 c -5.88,-9.9922 -14.11,-13.8086 -25.58,-13.8086 -22.04,0 -33.5,11.7578 -33.5,33.5039 h 112.57 z m -111.68,25.2736 c 3.23,15.578 16.16,23.808 31.73,23.808 14.41,0 27.63,-9.402 30.28,-23.808 h -62.01 v 0"
         style="fill:#231f20;fill-opacity:1;fill-rule:evenodd;stroke:none"
         id="path27" />
      <path
         d="m 1651.58,172.211 c -15.58,7.051 -32.63,9.699 -49.67,9.699 -32.92,0 -66.43,-16.457 -66.43,-53.488 0,-27.039 16.76,-35.2736 33.51,-39.6759 16.75,-4.4141 33.51,-5 33.51,-16.7578 0,-8.2227 -9.99,-11.457 -16.76,-11.457 -13.23,0 -31.45,7.6367 -42.32,15.2851 l -19.4,-37.3242 c 18.22,-11.1719 39.38,-17.3438 60.84,-17.3438 34.98,0 71.13,16.4532 71.13,56.1329 0,27.9177 -18.82,39.6757 -43.79,44.6757 -7.36,1.465 -24.11,2.941 -24.11,13.223 0,7.648 10.59,10.285 16.75,10.285 9.12,0 20.58,-2.942 28.81,-7.344 l 17.93,34.09 v 0"
         style="fill:#231f20;fill-opacity:1;fill-rule:nonzero;stroke:none"
         id="path29" />
      <path
         d="m 1754.42,135.473 c 21.75,0 34.38,-15.575 34.38,-34.09 0,-19.1135 -12.63,-33.801 -34.38,-33.801 -21.75,0 -34.39,14.6875 -34.39,33.801 0,18.515 12.64,34.09 34.39,34.09 z M 1668.31,26.1367 h 53.48 v 16.7578 h 0.59 c 9.7,-14.9882 27.92,-21.7461 45.56,-21.7461 44.97,0 76.12,37.0313 76.12,80.5276 0,43.203 -30.86,80.234 -75.53,80.234 -17.34,0 -35.28,-6.465 -46.74,-19.687 v 107.859 h -53.48 v -243.9453 0"
         style="fill:#231f20;fill-opacity:1;fill-rule:evenodd;stroke:none"
         id="path31" />
      <path
         d="m 2024.39,176.918 h -53.49 v -14.695 c -11.17,13.222 -29.39,19.687 -46.72,19.687 -44.68,0 -75.54,-37.031 -75.54,-80.234 0,-43.2033 31.44,-80.5276 76.12,-80.5276 17.63,0 36.14,6.7579 45.56,21.7461 h 0.58 V 26.1367 h 53.49 z m -86.11,-41.445 c 21.74,0 34.39,-15.575 34.39,-34.09 0,-19.1135 -12.65,-33.801 -34.39,-33.801 -21.75,0 -34.39,14.6875 -34.39,33.801 0,18.515 12.64,34.09 34.39,34.09 v 0"
         style="fill:#231f20;fill-opacity:1;fill-rule:evenodd;stroke:none"
         id="path33" />
      <path
         d="m 2098.72,176.918 h -53.5 V 26.1367 h 53.5 V 104.32 c 0,18.809 6.17,34.973 27.92,34.973 26.45,0 24.1,-25.273 24.1,-39.6797 V 26.1367 h 53.49 v 93.1763 c 0,37.031 -16.17,62.597 -56.72,62.597 -20.87,0 -35.86,-6.172 -48.21,-24.387 h -0.58 v 19.395 0"
         style="fill:#231f20;fill-opacity:1;fill-rule:nonzero;stroke:none"
         id="path35" />
      <path
         d="m 2278.26,270.082 h -53.5 V 26.1367 h 53.5 v 61.4258 l 58.48,-61.4258 h 74.95 l -80.24,81.1253 75.54,69.656 h -73.19 l -55.54,-54.375 v 147.539 0"
         style="fill:#231f20;fill-opacity:1;fill-rule:nonzero;stroke:none"
         id="path37" />
      <path
         d="m 2545.28,156.344 h -0.59 v 91.406 h -57.6 V 26.1367 h 57.6 V 122.25 h 0.59 l 74.36,-96.1133 h 74.65 l -96.1,116.6913 88.17,104.922 h -71.42 l -69.66,-91.406 v 0"
         style="fill:#231f20;fill-opacity:1;fill-rule:nonzero;stroke:none"
         id="path39" />
      <path
         d="m 2854.46,176.918 h -53.49 v -14.695 c -11.17,13.222 -29.39,19.687 -46.74,19.687 -44.66,0 -75.52,-37.031 -75.52,-80.234 0,-43.2033 31.44,-80.5276 76.12,-80.5276 17.63,0 36.14,6.7579 45.56,21.7461 h 0.58 V 26.1367 h 53.49 z m -86.11,-41.445 c 21.74,0 34.39,-15.575 34.39,-34.09 0,-19.1135 -12.65,-33.801 -34.39,-33.801 -21.75,0 -34.39,14.6875 -34.39,33.801 0,18.515 12.64,34.09 34.39,34.09 z m 41.43,125.793 c -16.16,0 -29.09,-12.93 -29.09,-28.801 0,-16.16 12.93,-28.809 29.09,-28.809 15.88,0 28.81,12.649 28.81,28.809 0,15.871 -12.93,28.801 -28.81,28.801 z m -75.23,0 c -16.17,0 -29.1,-12.93 -29.1,-28.801 0,-16.16 12.93,-28.809 29.1,-28.809 15.87,0 28.8,12.649 28.8,28.809 0,15.871 -12.93,28.801 -28.8,28.801 v 0"
         style="fill:#231f20;fill-opacity:1;fill-rule:evenodd;stroke:none"
         id="path41" />
      <path
         d="m 2928.78,176.918 h -53.49 V 26.1367 h 53.49 v 60.8399 c 0,25.8714 7.35,45.5584 37.04,45.5584 8.23,0 15.28,-0.879 22.63,-5 v 51.434 h -10.29 c -20.86,0 -38.5,-8.223 -48.79,-26.739 h -0.59 v 24.688 0"
         style="fill:#231f20;fill-opacity:1;fill-rule:nonzero;stroke:none"
         id="path43" />
      <path
         d="m 3051.58,176.918 h -53.5 V 26.1367 h 53.5 V 104.32 c 0,18.809 6.17,34.973 27.92,34.973 26.45,0 24.1,-25.273 24.1,-39.6797 V 26.1367 h 53.49 v 93.1763 c 0,37.031 -16.17,62.597 -56.72,62.597 -20.87,0 -35.86,-6.172 -48.21,-24.387 h -0.58 v 19.395 0"
         style="fill:#231f20;fill-opacity:1;fill-rule:nonzero;stroke:none"
         id="path45" />
      <path
         d="m 3236.11,132.828 h 30.27 v 44.09 h -30.27 v 45.266 h -53.5 v -45.266 h -17.33 v -44.09 h 17.33 V 26.1367 h 53.5 v 106.6913 0"
         style="fill:#231f20;fill-opacity:1;fill-rule:nonzero;stroke:none"
         id="path47" />
      <path
         d="m 3431.14,98.1484 c 0,51.4376 -30.28,83.7616 -82.59,83.7616 -49.08,0 -83.47,-30.273 -83.47,-80.527 0,-52.0236 37.33,-80.2346 87.29,-80.2346 34.38,0 68.18,16.1602 76.71,51.7188 h -51.44 c -5.88,-9.9922 -14.1,-13.8086 -25.56,-13.8086 -22.05,0 -33.51,11.7578 -33.51,33.5039 h 112.57 z m -111.69,25.2736 c 3.23,15.578 16.16,23.808 31.75,23.808 14.39,0 27.62,-9.402 30.27,-23.808 h -62.02 v 0"
         style="fill:#231f20;fill-opacity:1;fill-rule:evenodd;stroke:none"
         id="path49" />
      <path
         d="m 3494.3,176.918 h -53.48 V 26.1367 h 53.48 V 104.32 c 0,18.809 6.17,34.973 27.92,34.973 26.46,0 24.1,-25.273 24.1,-39.6797 V 26.1367 h 53.49 v 93.1763 c 0,37.031 -16.16,62.597 -56.72,62.597 -20.87,0 -35.86,-6.172 -48.2,-24.387 h -0.59 v 19.395 0"
         style="fill:#231f20;fill-opacity:1;fill-rule:nonzero;stroke:none"
         id="path51" />
      <path
         d="m 737.813,497.57 h 5.589 c 18.809,0 39.965,-3.531 39.965,-27.629 0,-24.101 -21.156,-27.625 -39.965,-27.625 h -5.589 z m 57.015,-86.707 c 31.457,5.586 48.5,32.039 48.5,62.606 0,47.316 -33.215,68.183 -77.004,68.183 H 680.211 V 320.051 h 57.602 v 85.226 h 0.585 l 54.379,-85.226 h 71.711 l -69.66,90.812 v 0"
         style="fill:#231f20;fill-opacity:1;fill-rule:evenodd;stroke:none"
         id="path53" />
      <path
         d="m 1029.05,470.824 h -53.487 v -14.695 c -11.168,13.223 -29.391,19.687 -46.731,19.687 -44.672,0 -75.535,-37.027 -75.535,-80.234 0,-43.203 31.453,-80.527 76.121,-80.527 17.637,0 36.152,6.758 45.559,21.746 h 0.586 v -16.75 h 53.487 z m -86.105,-41.445 c 21.743,0 34.383,-15.574 34.383,-34.09 0,-19.105 -12.64,-33.801 -34.383,-33.801 -21.754,0 -34.39,14.696 -34.39,33.801 0,18.516 12.636,34.09 34.39,34.09 v 0"
         style="fill:#231f20;fill-opacity:1;fill-rule:evenodd;stroke:none"
         id="path55" />
      <path
         d="m 1072.91,558.703 c -16.46,0 -29.98,-13.523 -29.98,-29.976 0,-16.461 13.52,-29.981 29.98,-29.981 16.45,0 29.97,13.52 29.97,29.981 0,16.453 -13.52,29.976 -29.97,29.976 z m 26.74,-87.879 h -53.49 V 320.051 h 53.49 v 150.773 0"
         style="fill:#231f20;fill-opacity:1;fill-rule:evenodd;stroke:none"
         id="path57" />
      <path
         d="M 1182.67,426.738 H 1220 v 44.086 h -37.33 v 24.391 c 0,17.051 4.7,25.277 18.52,25.277 7.05,0 12.63,-2.351 18.81,-5 v 46.149 c -7.35,3.824 -14.7,5.289 -22.92,5.289 -20.29,0 -39.39,-8.52 -52.61,-24.102 -14.7,-16.75 -15.29,-32.031 -15.29,-52.902 v -19.102 h -18.81 v -44.086 h 18.81 V 320.051 h 53.49 v 106.687 0"
         style="fill:#231f20;fill-opacity:1;fill-rule:nonzero;stroke:none"
         id="path59" />
      <path
         d="m 1281.98,426.738 h 37.32 v 44.086 h -37.32 v 24.391 c 0,17.051 4.7,25.277 18.51,25.277 7.06,0 12.65,-2.351 18.81,-5 v 46.149 c -7.34,3.824 -14.69,5.289 -22.92,5.289 -20.28,0 -39.38,-8.52 -52.61,-24.102 -14.69,-16.75 -15.28,-32.031 -15.28,-52.902 v -19.102 h -18.81 v -44.086 h 18.81 V 320.051 h 53.49 v 106.687 0"
         style="fill:#231f20;fill-opacity:1;fill-rule:nonzero;stroke:none"
         id="path61" />
      <path
         d="m 1483.62,392.055 c 0,51.437 -30.28,83.761 -82.59,83.761 -49.08,0 -83.47,-30.269 -83.47,-80.527 0,-52.023 37.32,-80.234 87.29,-80.234 34.39,0 68.18,16.16 76.71,51.722 h -51.44 c -5.88,-9.992 -14.1,-13.812 -25.57,-13.812 -22.04,0 -33.5,11.758 -33.5,33.504 h 112.57 z m -111.69,25.273 c 3.24,15.582 16.16,23.809 31.74,23.809 14.4,0 27.63,-9.403 30.28,-23.809 h -62.02 v 0"
         style="fill:#231f20;fill-opacity:1;fill-rule:evenodd;stroke:none"
         id="path63" />
      <path
         d="m 1520.03,558.703 c -16.45,0 -29.97,-13.523 -29.97,-29.976 0,-16.461 13.52,-29.981 29.97,-29.981 16.46,0 29.98,13.52 29.98,29.981 0,16.453 -13.52,29.976 -29.98,29.976 z m 26.75,-87.879 h -53.49 V 320.051 h 53.49 v 150.773 0"
         style="fill:#231f20;fill-opacity:1;fill-rule:evenodd;stroke:none"
         id="path65" />
      <path
         d="m 1684.86,466.117 c -15.58,7.059 -32.63,9.699 -49.67,9.699 -32.92,0 -66.43,-16.457 -66.43,-53.488 0,-27.039 16.75,-35.273 33.51,-39.676 16.75,-4.41 33.5,-4.996 33.5,-16.754 0,-8.226 -9.99,-11.46 -16.75,-11.46 -13.23,0 -31.45,7.64 -42.33,15.285 l -19.39,-37.325 c 18.22,-11.175 39.38,-17.343 60.84,-17.343 34.98,0 71.12,16.453 71.12,56.133 0,27.917 -18.81,39.675 -43.79,44.675 -7.35,1.465 -24.1,2.938 -24.1,13.223 0,7.644 10.58,10.289 16.75,10.289 9.12,0 20.58,-2.945 28.81,-7.348 l 17.93,34.09 v 0"
         style="fill:#231f20;fill-opacity:1;fill-rule:nonzero;stroke:none"
         id="path67" />
      <path
         d="m 1858.24,392.055 c 0,51.437 -30.29,83.761 -82.6,83.761 -49.08,0 -83.46,-30.269 -83.46,-80.527 0,-52.023 37.32,-80.234 87.29,-80.234 34.38,0 68.18,16.16 76.71,51.722 h -51.44 c -5.88,-9.992 -14.11,-13.812 -25.57,-13.812 -22.04,0 -33.51,11.758 -33.51,33.504 h 112.58 z m -111.69,25.273 c 3.23,15.582 16.16,23.809 31.74,23.809 14.4,0 27.63,-9.403 30.27,-23.809 h -62.01 v 0"
         style="fill:#231f20;fill-opacity:1;fill-rule:evenodd;stroke:none"
         id="path69" />
      <path
         d="m 1921.4,470.824 h -53.49 V 320.051 h 53.49 v 78.176 c 0,18.808 6.17,34.976 27.92,34.976 26.46,0 24.1,-25.277 24.1,-39.676 v -73.476 h 53.49 v 93.168 c 0,37.031 -16.16,62.597 -56.72,62.597 -20.87,0 -35.86,-6.168 -48.2,-24.39 h -0.59 v 19.398 0"
         style="fill:#231f20;fill-opacity:1;fill-rule:nonzero;stroke:none"
         id="path71" />
      <path
         d="M 0,566.918 V -0.00390625 H 566.918 V 566.918 H 0"
         style="fill:#fff200;fill-opacity:1;fill-rule:nonzero;stroke:none"
         id="path73" />
      <path
         d="m 283.363,218.461 171.356,-171.1719 66.926,66.9529 -171.317,171.172 33.356,33.285 -0.204,66.949 23.86,23.868 0.195,-55.215 23.145,-23.106 83.769,83.754 22.422,-22.398 c 0,14.387 -4.055,64.094 -43.891,102.91 -44.605,43.477 -89.273,18.059 -104.628,2.684 l -80.868,-80.879 20.172,-20.114 -44.593,-44.343 -44.497,44.402 20.09,20.086 -80.84,80.848 C 162.441,513.52 117.781,538.938 73.1992,495.461 33.3555,456.645 30.0391,407.016 30.0391,392.617 l 21.957,22 83.5509,-83.504 23.285,23.325 v 55.078 l 23.871,-23.868 -0.051,-66.57 33.414,-33.41 L 46.25,116.012 113.531,48.8047 283.363,218.461"
         style="fill:#231f20;fill-opacity:1;fill-rule:nonzero;stroke:none"
         id="path75" />
    </g>
  </g>
</svg>
