<?xml version="1.0" encoding="UTF-8" standalone="no"?>
<svg
   width="24"
   height="24"
   fill-rule="evenodd"
   clip-rule="evenodd"
   version="1.1"
   id="svg834"
   xmlns="http://www.w3.org/2000/svg"
   xmlns:svg="http://www.w3.org/2000/svg">
  <defs
     id="defs838" />
  <path
     d="M20 .755l-14.374 11.245 14.374 11.219-.619.781-15.381-12 15.391-12 .609.755z"
     id="path832" />
  <path
     style="fill:#ececec;stroke-width:0.0289505"
     d="M 11.710495,17.992376 C 7.5068758,14.712475 4.0641095,12.018601 4.0599029,12.00599 4.0515134,11.980838 19.325213,0.06166402 19.378449,0.05181834 c 0.02812,-0.0052014 0.574346,0.64841377 0.580695,0.6948674 0.0012,0.009074 -3.222111,2.53901096 -7.163004,5.62208276 -3.9408927,3.0830716 -7.1652594,5.6170605 -7.1652594,5.6310865 0,0.01403 3.2243667,2.542064 7.1652594,5.617862 3.940893,3.075799 7.168243,5.595031 7.171889,5.598294 0.012,0.01074 -0.574412,0.740572 -0.594735,0.740192 -0.01092,-2.04e-4 -3.459181,-2.683927 -7.662799,-5.963827 z"
     id="path975" />
</svg>
