<?xml version="1.0" encoding="UTF-8" standalone="no"?>
<svg
   width="24"
   height="24"
   fill-rule="evenodd"
   clip-rule="evenodd"
   version="1.1"
   id="svg19"
   xmlns="http://www.w3.org/2000/svg"
   xmlns:svg="http://www.w3.org/2000/svg">
  <defs
     id="defs23" />
  <path
     d="M 12,0 C 18.623,0 24,5.377 24,12 24,18.623 18.623,24 12,24 5.377,24 0,18.623 0,12 0,5.377 5.377,0 12,0 Z m 0,1 C 18.071,1 23,5.929 23,12 23,18.071 18.071,23 12,23 5.929,23 1,18.071 1,12 1,5.929 5.929,1 12,1 Z M 12,11.293 17.293,6 18,6.707 12.707,12 18,17.293 17.293,18 12,12.707 6.707,18 6,17.293 11.293,12 6,6.707 6.707,6 Z"
     id="path17"
     style="display:inline" />
  <path
     style="fill:#ffff00;stroke-width:0.0289505"
     d="m 11.305187,23.968778 c -0.05573,-0.0063 -0.264174,-0.02571 -0.463209,-0.04319 C 10.051987,23.85624 9.0150349,23.638271 8.2364294,23.377903 7.2153516,23.036452 6.301145,22.587784 5.3703257,21.971297 2.6256833,20.153505 0.73471058,17.249358 0.18994981,14.015299 0.05925982,13.239437 0.0295513,12.86617 0.0295513,12 c 0,-0.86617 0.02970852,-1.239437 0.16039851,-2.0152991 C 0.71947316,6.8411016 2.5171456,4.0092316 5.1462931,2.1769823 6.6133172,1.1546152 8.25129,0.48193404 9.9847009,0.18994981 10.764538,0.05859011 11.134451,0.02905813 12,0.02905813 c 0.865549,0 1.235462,0.02953198 2.015299,0.16089168 C 19.005284,1.0304876 22.969512,4.9947156 23.81005,9.9847009 23.94074,10.760563 23.970449,11.13383 23.970449,12 c 0,0.86617 -0.02971,1.239437 -0.160399,2.015299 -0.379618,2.253663 -1.386458,4.307959 -2.97572,6.071479 -0.960089,1.06536 -2.158601,1.967939 -3.50006,2.635835 -1.294871,0.644699 -2.56981,1.021735 -4.031496,1.192226 -0.364946,0.04257 -1.763372,0.08033 -1.997587,0.05394 z m 1.679131,-0.998206 c 5.309181,-0.485362 9.508711,-4.684716 9.986675,-9.986254 0.03882,-0.430602 0.03858,-1.541982 -4.2e-4,-1.968636 C 22.598854,6.9496065 20.045975,3.4522272 16.279957,1.8497099 15.382028,1.4676226 14.418916,1.2090941 13.360676,1.0660854 12.868216,0.9995353 11.239264,0.99051648 10.755127,1.0516595 8.6555299,1.3168232 6.7911405,2.0821488 5.2110977,3.3274648 3.1856581,4.9238215 1.7978031,7.1251139 1.2491333,9.6115802 1.0619414,10.459898 0.99884213,11.062027 0.99884213,12 c 0,0.937973 0.0630993,1.540102 0.25029117,2.38842 0.9054999,4.103552 4.0907584,7.340129 8.1930388,8.32504 0.409114,0.09822 1.1214239,0.217763 1.5156079,0.254348 0.395908,0.03675 1.636322,0.03844 2.026538,0.0028 z"
     id="path179" />
  <path
     style="fill:#ffec00;stroke-width:0.0289505;fill-opacity:1"
     d="M 6.354438,17.630674 6.0222451,17.297536 8.6708943,14.648768 11.319544,12 8.6707349,9.3510728 6.0219262,6.7021453 6.3620358,6.3620358 6.7021453,6.0219262 9.3510728,8.6707349 12,11.319544 14.648927,8.6707349 17.297855,6.0219262 17.637964,6.3620358 17.978074,6.7021453 15.329265,9.3510728 12.680456,12 l 2.648809,2.648927 2.648809,2.648928 -0.34011,0.340109 -0.340109,0.34011 L 14.648927,15.329265 12,12.680456 9.3582039,15.322134 c -1.4529878,1.452923 -2.6484958,2.641678 -2.6566845,2.641678 -0.00819,0 -0.1643753,-0.149912 -0.3470814,-0.333138 z"
     id="path218" />
  <path
     style="fill:#ffffff;fill-opacity:1;stroke-width:0.0289505"
     d="M 10.827503,23.911319 C 10.039355,23.826788 9.0425281,23.618273 8.3331567,23.389555 7.1717547,23.015092 5.8968958,22.356279 4.897618,21.614162 4.339343,21.199557 4.0553926,20.952442 3.5165787,20.412279 1.5985565,18.489455 0.41730054,16.025497 0.10132867,13.288477 c -0.05960674,-0.516328 -0.05960674,-2.060626 0,-2.576954 C 0.54114473,6.9017367 2.6977373,3.5880814 5.9948121,1.6560464 7.4713476,0.79081928 9.264128,0.22264935 10.986731,0.07400175 c 0.44713,-0.03858393 1.579408,-0.03858393 2.026538,0 0.712388,0.06147372 1.568467,0.21990832 2.258142,0.41791447 3.305676,0.94906198 6.03879,3.26110068 7.529369,6.36936238 0.534322,1.1142074 0.864464,2.2261575 1.07444,3.6188184 0.0769,0.510013 0.0769,2.529793 0,3.039806 -0.299006,1.983152 -0.892821,3.556534 -1.928496,5.109771 -1.875767,2.813155 -4.858849,4.707821 -8.20291,5.209973 -0.771474,0.115847 -2.181363,0.150496 -2.916311,0.07167 z m 2.735826,-0.991679 c 1.270947,-0.203595 2.316238,-0.532567 3.36996,-1.060588 2.210859,-1.107863 3.984533,-2.920779 5.040899,-5.152429 0.567561,-1.199014 0.916495,-2.521789 1.016269,-3.852582 0.04146,-0.552974 0.01638,-1.735119 -0.04698,-2.214717 C 22.637298,8.3218665 21.71835,6.3218137 20.160253,4.5817529 19.283033,3.6020859 18.147822,2.746877 16.892642,2.1201032 15.670284,1.5097199 14.276654,1.118488 12.988041,1.0239704 12.399873,0.98082925 10.878546,1.0078571 10.507715,1.0680357 9.3143137,1.2617012 8.4499391,1.5111481 7.4837153,1.9407214 5.1185718,2.9922404 3.1767454,4.8863612 2.0533925,7.2376357 1.3319585,8.7476595 0.98466618,10.295002 0.98450649,12 c -9.554e-5,1.027252 0.0858177,1.727696 0.33464921,2.728347 0.5825864,2.342814 1.9747276,4.467819 3.9170951,5.979168 1.6306755,1.268823 3.5078354,2.017239 5.7070542,2.275382 0.05573,0.0065 0.583354,0.0085 1.172497,0.0045 0.921195,-0.0064 1.123864,-0.01587 1.447527,-0.06772 z"
     id="path1183" />
  <path
     style="fill:#ffffff;fill-opacity:1;stroke-width:0.0289505"
     d="M 14.648933,15.314796 12.000131,12.665875 9.8287747,14.830051 C 8.6345288,16.020348 7.440703,17.207481 7.1758284,17.468126 L 6.6942382,17.942025 6.3652132,17.621421 6.0361882,17.300818 8.6851035,14.650409 11.334019,12 8.6852102,9.3510728 6.0364015,6.7021453 6.3693327,6.3692141 6.702264,6.0362828 9.3510731,8.6852105 11.999882,11.334138 14.649181,8.6849561 17.298481,6.035774 17.63088,6.3691191 17.96328,6.7024642 15.31463,9.351232 12.665981,12 l 2.648809,2.648927 2.648808,2.648928 -0.332931,0.332931 -0.332931,0.332931 z"
     id="path1266" />
</svg>
